<svg width="15" height="18" viewBox="0 0 15 18" fill="none" xmlns="http://www.w3.org/2000/svg">
<path fill-rule="evenodd" clip-rule="evenodd" d="M7.4995 0C5.14114 0 3.21387 1.84012 3.21387 4.09185C3.21387 6.34357 5.14114 8.1837 7.4995 8.1837C9.85786 8.1837 11.7851 6.34357 11.7851 4.09185C11.7851 1.84012 9.85786 0 7.4995 0ZM7.4995 1.36395C9.08588 1.36395 10.3566 2.5772 10.3566 4.09185C10.3566 5.6065 9.08588 6.81975 7.4995 6.81975C5.91312 6.81975 4.64241 5.6065 4.64241 4.09185C4.64241 2.5772 5.91312 1.36395 7.4995 1.36395Z" fill="white"/>
<path fill-rule="evenodd" clip-rule="evenodd" d="M4.64277 8.86548C2.08302 8.86548 0 10.8543 0 13.2983C0 15.7423 2.08302 17.7312 4.64277 17.7312H10.3569C12.9167 17.7312 14.9997 15.7423 14.9997 13.2983C14.9997 10.8543 12.9167 8.86548 10.3569 8.86548H4.64277ZM4.64277 10.2294H10.3569C12.15 10.2294 13.5712 11.5864 13.5712 13.2983C13.5712 15.0103 12.15 16.3672 10.3569 16.3672H4.64277C2.84974 16.3672 1.42854 15.0103 1.42854 13.2983C1.42854 11.5864 2.84974 10.2294 4.64277 10.2294Z" fill="white"/>
</svg>
