<svg width="17" height="17" viewBox="0 0 17 17" fill="none" xmlns="http://www.w3.org/2000/svg">
<g clip-path="url(#clip0_1_22)">
<path d="M2.16283 0.417055C1.1942 1.38475 0.216703 2.70178 0 3.94829C0.0326923 6.56041 2.30387 9.39763 4.93 12.0214C6.23069 13.3207 7.63832 14.627 9.02728 15.5769C10.4162 16.5269 11.7977 17.1635 13.1166 16.9631C14.2805 16.837 15.7152 15.6134 16.5857 14.7937C17.1597 14.2174 17.1158 13.1484 16.5857 12.6001L14.3739 10.3901C13.6906 9.82637 12.8046 9.85206 12.0887 10.2107L10.603 11.3036C10.2299 11.4372 9.80582 11.1018 9.55036 10.9206C8.95022 10.4914 8.26041 9.8189 7.70558 9.26499C7.1414 8.70129 6.45907 8.05351 6.0322 7.47906C5.75198 7.11945 5.57637 6.73368 5.67305 6.36192C6.04481 5.84771 6.43945 5.32697 6.79953 4.8123C7.12459 4.08607 7.11385 3.14733 6.60338 2.61865L4.39945 0.425462C3.64192 -0.178879 2.89701 -0.100884 2.16283 0.417055ZM3.66481 1.15917L5.86033 3.36123C6.05648 3.67601 5.98082 3.98052 5.87668 4.31538L4.83192 5.74263C4.34574 6.59964 4.69508 7.43423 5.19107 8.10769C5.70808 8.80403 6.42684 9.45695 6.97047 9.99964C7.52577 10.5549 8.22585 11.2686 8.93761 11.7776C9.59753 12.2451 10.5288 12.6043 11.2228 12.1447C11.6954 11.7958 12.1695 11.4484 12.643 11.1009C13.0097 10.9557 13.3072 10.9617 13.6388 11.1336L15.8427 13.3352C16.0024 13.5869 15.9721 13.7779 15.859 14.0367C14.9404 14.7204 13.9988 15.7311 12.9532 15.9366C12.0999 16.0622 10.9043 15.5952 9.61481 14.7134C8.32159 13.8288 6.95179 12.5669 5.67258 11.2882C3.13146 8.74846 1.10874 5.94626 1.05269 3.98052C1.20775 3.18749 1.89102 2.22587 2.88113 1.17505C3.17022 0.957412 3.37431 1.01813 3.66481 1.1587V1.15917Z" fill="white"/>
</g>
<defs>
<clipPath id="clip0_1_22">
<rect width="17" height="17" fill="white"/>
</clipPath>
</defs>
</svg>
